<?xml version="1.0" encoding="UTF-8"?>
<svg width="142px" height="24px" viewBox="0 0 142 24" version="1.1" xmlns="http://www.w3.org/2000/svg" xmlns:xlink="http://www.w3.org/1999/xlink">
    <!-- Generator: Sketch 50 (54983) - http://www.bohemiancoding.com/sketch -->
    <title>Page 1</title>
    <desc>Created with Sketch.</desc>
    <defs>
        <polygon id="path-1" points="0 0.121236364 14.2138396 0.121236364 14.2138396 23.7575758 0 23.7575758"></polygon>
        <polygon id="path-3" points="0.075300846 0.11990303 11.319154 0.11990303 11.319154 12.1296 0.075300846 12.1296"></polygon>
    </defs>
    <g id="Page-1" stroke="none" stroke-width="1" fill="none" fill-rule="evenodd">
        <g id="Desktop-Copy-12" transform="translate(-86.000000, -50.000000)">
            <g id="logo-green-ish" transform="translate(86.000000, 50.000000)">
                <g id="Page-1">
                    <path d="M14.3161709,0.242424242 L13.9648951,0.242424242 C13.6054501,0.242424242 13.314242,0.536484848 13.314242,0.898909091 L13.314242,2.59563636 C13.314242,2.83466667 13.4850745,3.03757576 13.7181371,3.07975758 C15.354621,3.37551515 16.6222893,4.10618182 17.6934162,5.07515152 C17.9572335,5.31369697 17.9870271,5.72606061 17.7554061,5.99660606 L16.3385296,7.65187879 C16.1268511,7.89915152 15.7657242,7.95442424 15.4949391,7.77575758 C14.2815719,6.97406061 13.2404788,6.55515152 11.7589695,6.55515152 C10.4110508,6.55515152 9.66549069,7.06860606 9.66549069,7.95466667 C9.66549069,10.1197576 18.4776599,9.85357576 18.4776599,15.4087273 C18.4776599,17.8589091 16.8036937,19.8438788 13.6989154,20.5008485 C13.4745025,20.5483636 13.314242,20.7498182 13.314242,20.9813333 L13.314242,23.222303 C13.314242,23.5847273 13.6054501,23.8787879 13.9648951,23.8787879 L14.3161709,23.8787879 C19.3474399,23.8787879 23.4265161,19.7633939 23.4265161,14.6867879 L23.4265161,9.43442424 C23.4265161,4.35781818 19.3474399,0.242424242 14.3161709,0.242424242" id="Fill-1" fill="#2AD9C2"></path>
                    <g id="Group-5" transform="translate(0.000000, 0.121212)">
                        <mask id="mask-2" fill="white">
                            <use xlink:href="#path-1"></use>
                        </mask>
                        <g id="Clip-4"></g>
                        <path d="M5.07994788,18.5243879 C4.80267547,18.3185697 4.73131506,17.9311758 4.91776514,17.639297 L6.19816785,15.6315394 C6.38750118,15.3350545 6.77505787,15.2443879 7.0768379,15.4225697 C8.75825245,16.4165091 10.2693151,16.9920242 11.983887,16.9920242 C13.4464149,16.9920242 14.2138396,16.4749333 14.2138396,15.6022061 C14.2138396,13.0548121 5.40167039,13.5052364 5.40167039,7.89432727 C5.40167039,5.37626667 7.14050964,3.58450909 9.97714585,3.01141818 C10.2046822,2.96535758 10.3685469,2.76366061 10.3685469,2.52972121 L10.3685469,0.777721212 C10.3685469,0.41529697 10.0770985,0.121236364 9.71789374,0.121236364 L9.11024907,0.121236364 C4.07873976,0.121236364 -9.6108291e-05,4.23638788 -9.6108291e-05,9.31323636 L-9.6108291e-05,14.5656 C-9.6108291e-05,19.6422061 4.07873976,23.7576 9.11024907,23.7576 L9.71789374,23.7576 C10.0770985,23.7576 10.3685469,23.4635394 10.3685469,23.1011152 L10.3685469,20.9840242 C10.3685469,20.7413576 10.1938701,20.5350545 9.9562423,20.4984485 C8.28804264,20.2412364 6.46198511,19.5496 5.07994788,18.5243879" id="Fill-3" fill="#FFFFFF" mask="url(#mask-2)"></path>
                    </g>
                    <path d="M33.2509699,16.7095273 L36.2159107,16.7095273 C37.9946349,16.7095273 38.7851255,15.9563152 38.7851255,14.582497 C38.7851255,13.3412848 37.9946349,12.5660121 36.1938058,12.5660121 L33.2509699,12.5660121 L33.2509699,16.7095273 Z M36.2815046,10.0176485 C37.8408616,10.0176485 38.4778193,9.3088 38.4778193,8.22298182 C38.4778193,7.11534545 37.6431188,6.53910303 36.3913083,6.53910303 L33.2509699,6.53910303 L33.2509699,10.0176485 L36.2815046,10.0176485 Z M30.0447973,3.99098182 L36.6548853,3.99098182 C40.3226179,3.99098182 41.7058565,5.89643636 41.7058565,7.89061818 C41.7058565,9.61910303 40.8055621,10.7267394 39.7733591,11.1921939 C40.8055621,11.5912242 42.1453117,12.6768 42.1453117,14.6932848 C42.1453117,17.3078303 40.1030105,19.2576485 36.8965976,19.2576485 L30.0447973,19.2576485 L30.0447973,3.99098182 Z" id="Fill-6" fill="#FFFFFF"></path>
                    <path d="M54.2472196,15.9339394 C54.2472196,17.0197576 54.2472196,18.2384242 54.2690843,19.2575758 L51.19458,19.2575758 C51.1506105,18.9475152 51.1287459,18.3269091 51.1068812,17.9281212 C50.425954,19.0803636 49.4377205,19.5235152 47.9663025,19.5235152 C45.6606646,19.5235152 44.1892467,18.1053333 44.1892467,15.2692121 L44.1892467,7.77975758 L47.3295851,7.77975758 L47.3295851,14.6265455 C47.3295851,15.8895758 47.7248305,16.9310303 49.0864447,16.9310303 C50.5138931,16.9310303 51.1068812,16.1555152 51.1068812,13.8953939 L51.1068812,7.77975758 L54.2472196,7.77975758 L54.2472196,15.9339394 Z" id="Fill-8" fill="#FFFFFF"></path>
                    <path d="M61.6869384,16.9753697 C63.8392836,16.9753697 64.1028606,15.1584 64.1028606,13.5186424 C64.1028606,11.5465212 63.8171787,10.0621576 61.7527726,10.0621576 C60.105957,10.0621576 59.2712565,11.3695515 59.2712565,13.5409455 C59.2712565,15.7787636 60.1278217,16.9753697 61.6869384,16.9753697 Z M67.1112904,3.08252121 L67.1112904,16.1113697 C67.1112904,17.1525818 67.1112904,18.216097 67.1333953,19.2575515 L64.1247252,19.2575515 C64.058891,18.9028848 63.9930569,18.3268848 63.9709519,18.0611879 C63.4219333,18.9695515 62.4336998,19.5234909 60.7426745,19.5234909 C57.865913,19.5234909 56.0432193,17.1969455 56.0432193,13.6073697 C56.0432193,10.0842182 57.9757168,7.51403636 61.203754,7.51403636 C62.8510501,7.51403636 63.7294799,8.11209697 63.9709519,8.62191515 L63.9709519,3.08252121 L67.1112904,3.08252121 Z" id="Fill-10" fill="#FFFFFF"></path>
                    <path d="M74.4874335,16.5544485 C76.3759614,16.5544485 76.8812508,15.2470545 76.8812508,13.319297 C76.8812508,11.3915394 76.5518396,10.0623273 74.5532677,10.0623273 C73.1916535,10.0623273 72.1157212,11.1256 72.1157212,13.4300848 C72.1157212,15.4022061 73.1039547,16.5544485 74.4874335,16.5544485 Z M79.8680562,17.8618424 C79.8680562,21.5396606 78.5280663,23.8664485 74.2238565,23.8664485 C70.07342,23.8664485 69.2608244,21.5396606 69.1510206,20.2325091 L72.3574335,20.2325091 C72.5770409,21.0303273 73.1479242,21.5619636 74.3557651,21.5619636 C76.3980663,21.5619636 76.7935519,20.2989333 76.7935519,18.0611152 L76.7935519,17.5071758 C76.2005638,18.5042667 75.2560596,19.1246303 73.5871391,19.1246303 C70.6003337,19.1246303 68.8874437,16.6429333 68.8874437,13.5629333 C68.8874437,9.9736 71.0176839,7.51396364 73.8507161,7.51396364 C75.8050782,7.51396364 76.6176738,8.4446303 76.7935519,8.97626667 C76.8151763,8.66620606 76.9031154,7.97941818 76.9252203,7.77990303 L79.8896805,7.77990303 C79.8896805,8.82135758 79.8680562,9.9736 79.8680562,11.0814788 L79.8680562,17.8618424 Z" id="Fill-12" fill="#FFFFFF"></path>
                    <path d="M89.1876051,12.2556848 C89.1657404,10.9264727 88.6388267,9.79604848 87.1013343,9.79604848 C85.608292,9.79604848 84.993199,10.837503 84.8612904,12.2556848 L89.1876051,12.2556848 Z M84.7956964,14.2057455 C84.7956964,15.6457455 85.5201127,17.0418667 87.0794697,17.0418667 C88.3971144,17.0418667 88.7704951,16.5099879 89.0778014,15.8232 L92.2181398,15.8232 C91.8231347,17.2190788 90.5713242,19.5233212 87.0136355,19.5233212 C83.2582041,19.5233212 81.6332531,16.709503 81.6332531,13.6959273 C81.6332531,10.0842909 83.4559469,7.51386667 87.1234393,7.51386667 C91.0105391,7.51386667 92.3500484,10.3722909 92.3500484,13.2304727 C92.3500484,13.629503 92.3500484,13.8733818 92.3060788,14.2057455 L84.7956964,14.2057455 Z" id="Fill-14" fill="#FFFFFF"></path>
                    <path d="M93.0040173,7.7798303 L94.7608768,7.7798303 L94.7608768,4.6777697 L97.9014555,4.6777697 L97.9014555,7.7798303 L100.141259,7.7798303 L100.141259,10.1730424 L97.9014555,10.1730424 L97.9014555,15.8455273 C97.9014555,16.7095273 98.1647922,17.0418909 99.1090562,17.0418909 C99.2849343,17.0418909 99.5922406,17.0418909 99.8118481,17.0195879 L99.8118481,19.1909818 C99.1969953,19.4125576 98.3406704,19.4125576 97.7037127,19.4125576 C95.4855333,19.4125576 94.7608768,18.2161939 94.7608768,16.1997091 L94.7608768,10.1730424 L93.0040173,10.1730424 L93.0040173,7.7798303 Z" id="Fill-16" fill="#FFFFFF"></path>
                    <path d="M106.599496,16.5987152 L109.059148,16.5987152 C111.958014,16.5987152 113.253554,14.4050182 113.253554,11.4358061 C113.253554,8.93204848 112.045713,6.64986667 109.081012,6.64986667 L106.599496,6.64986667 L106.599496,16.5987152 Z M103.327249,3.99095758 L109.344589,3.99095758 C113.736738,3.99095758 116.635604,6.91580606 116.635604,11.4358061 C116.635604,15.8896242 113.824437,19.2576242 109.190816,19.2576242 L103.327249,19.2576242 L103.327249,3.99095758 Z" id="Fill-18" fill="#2AD9C2"></path>
                    <path d="M128.797075,15.9339394 C128.797075,17.0197576 128.797075,18.2384242 128.81894,19.2575758 L125.744436,19.2575758 C125.700466,18.9475152 125.678602,18.3269091 125.656737,17.9281212 C124.97581,19.0803636 123.987576,19.5235152 122.516158,19.5235152 C120.21052,19.5235152 118.739103,18.1053333 118.739103,15.2692121 L118.739103,7.77975758 L121.879441,7.77975758 L121.879441,14.6265455 C121.879441,15.8895758 122.274686,16.9310303 123.636301,16.9310303 C125.063749,16.9310303 125.656737,16.1555152 125.656737,13.8953939 L125.656737,7.77975758 L128.797075,7.77975758 L128.797075,15.9339394 Z" id="Fill-20" fill="#2AD9C2"></path>
                    <g id="Group-24" transform="translate(130.467005, 7.393939)">
                        <mask id="mask-4" fill="white">
                            <use xlink:href="#path-3"></use>
                        </mask>
                        <g id="Clip-23"></g>
                        <path d="M3.2596088,6.12475152 C3.2596088,8.34075152 4.20411303,9.64790303 5.71926024,9.64790303 C7.27861726,9.64790303 8.13494213,8.34075152 8.13494213,6.14705455 C8.13494213,3.75408485 7.25651235,2.62390303 5.67553096,2.62390303 C4.22573739,2.62390303 3.2596088,3.70972121 3.2596088,6.12475152 M11.3192501,6.10269091 C11.3192501,9.58147879 9.25484399,12.1296 5.65342606,12.1296 C2.13970694,12.1296 0.075300846,9.58147879 0.075300846,6.16911515 C0.075300846,2.62390303 2.20554112,0.11990303 5.80719932,0.11990303 C9.14504027,0.11990303 11.3192501,2.51311515 11.3192501,6.10269091" id="Fill-22" fill="#2AD9C2" mask="url(#mask-4)"></path>
                    </g>
                </g>
            </g>
        </g>
    </g>
</svg>