<?xml version="1.0" standalone="no"?>
<!DOCTYPE svg PUBLIC "-//W3C//DTD SVG 20010904//EN"
 "http://www.w3.org/TR/2001/REC-SVG-20010904/DTD/svg10.dtd">
<svg version="1.0" xmlns="http://www.w3.org/2000/svg"
 width="792.000000pt" height="792.000000pt" viewBox="0 0 792.000000 792.000000"
 preserveAspectRatio="xMidYMid meet">
<metadata>
Created by potrace 1.11, written by Peter Selinger 2001-2013
</metadata>
<g transform="translate(0.000000,792.000000) scale(0.100000,-0.100000)"
fill="#000000" stroke="none">
<path d="M2870 7834 c-376 -35 -656 -100 -949 -221 -148 -61 -381 -184 -516
-274 -783 -522 -1274 -1350 -1355 -2284 -6 -72 -10 -519 -10 -1116 0 -1061 4
-1172 51 -1416 109 -573 358 -1070 752 -1503 454 -500 1102 -845 1775 -945
233 -35 642 -48 726 -23 52 16 121 84 136 135 8 26 10 161 8 433 l-3 395 -23
33 c-34 47 -65 59 -216 87 -461 85 -959 275 -1325 505 -213 134 -248 167 -272
255 -22 80 -6 112 244 500 270 418 272 420 390 420 71 0 74 -1 197 -71 231
-132 423 -222 646 -305 540 -199 1158 -222 1440 -53 83 50 130 99 167 174 30
60 32 72 32 165 0 90 -3 106 -29 159 -36 74 -123 162 -229 230 -157 102 -305
168 -802 356 -795 300 -1120 474 -1412 754 -294 282 -433 584 -450 977 -35
824 477 1427 1406 1659 164 41 193 55 222 110 17 32 19 63 19 369 0 319 -1
337 -21 378 -25 51 -76 96 -128 112 -35 10 -374 14 -471 5z"/>
<path d="M4590 7808 c-25 -14 -58 -44 -75 -67 l-30 -43 -3 -334 c-2 -297 -1
-338 14 -370 25 -53 74 -79 198 -104 286 -57 573 -172 836 -335 187 -116 408
-296 448 -365 33 -55 37 -145 10 -200 -19 -37 -490 -589 -536 -628 -15 -12
-50 -29 -78 -38 -75 -22 -125 -7 -258 77 -376 238 -743 349 -1146 349 -375 -1
-603 -103 -680 -307 -31 -82 -32 -192 -1 -256 79 -164 279 -271 971 -522 845
-307 1205 -499 1510 -805 252 -253 377 -511 417 -864 41 -356 -46 -722 -242
-1021 -70 -106 -100 -144 -203 -248 -252 -256 -592 -439 -1022 -548 -166 -42
-193 -55 -221 -109 -18 -32 -19 -65 -19 -451 l0 -416 23 -44 c13 -24 43 -57
66 -74 l43 -30 246 0 c256 1 329 7 548 51 269 54 476 125 740 254 478 235 883
590 1183 1040 309 465 473 971 501 1550 13 268 13 1728 0 1984 -24 474 -124
852 -333 1260 -142 278 -321 522 -551 752 -463 462 -1024 748 -1681 855 -97
15 -193 22 -380 26 -250 5 -250 5 -295 -19z"/>
</g>
</svg>
