<?xml version="1.0" encoding="UTF-8"?>
<svg width="98px" height="99px" viewBox="0 0 98 99" version="1.1" xmlns="http://www.w3.org/2000/svg" xmlns:xlink="http://www.w3.org/1999/xlink">
    <!-- Generator: Sketch 50 (54983) - http://www.bohemiancoding.com/sketch -->
    <title>logo green-ish copy</title>
    <desc>Created with Sketch.</desc>
    <defs></defs>
    <g id="logo-green-ish-copy" stroke="none" stroke-width="1" fill="none" fill-rule="evenodd">
        <path d="M59.5835,1 L58.1215,1 C56.6255,1 55.4135,2.213 55.4135,3.708 L55.4135,10.707 C55.4135,11.693 56.1245,12.53 57.0945,12.704 C63.9055,13.924 69.1815,16.938 73.6395,20.935 C74.7375,21.919 74.8615,23.62 73.8975,24.736 L68.0005,31.564 C67.1195,32.584 65.6165,32.812 64.4895,32.075 C59.4395,28.768 55.1065,27.04 48.9405,27.04 C43.3305,27.04 40.2275,29.158 40.2275,32.813 C40.2275,41.744 76.9035,40.646 76.9035,63.561 C76.9035,73.668 69.9365,81.856 57.0145,84.566 C56.0805,84.762 55.4135,85.593 55.4135,86.548 L55.4135,95.792 C55.4135,97.287 56.6255,98.5 58.1215,98.5 L59.5835,98.5 C80.5235,98.5 97.5005,81.524 97.5005,60.583 L97.5005,38.917 C97.5005,17.976 80.5235,1 59.5835,1" id="Fill-1" fill="#2AD9C2"></path>
        <path d="M21.1426,76.9131 C19.9886,76.0641 19.6916,74.4661 20.4676,73.2621 L25.7966,64.9801 C26.5846,63.7571 28.1976,63.3831 29.4536,64.1181 C36.4516,68.2181 42.7406,70.5921 49.8766,70.5921 C55.9636,70.5921 59.1576,68.4591 59.1576,64.8591 C59.1576,54.3511 22.4816,56.2091 22.4816,33.0641 C22.4816,22.6771 29.7186,15.2861 41.5246,12.9221 C42.4716,12.7321 43.1536,11.9001 43.1536,10.9351 L43.1536,3.7081 C43.1536,2.2131 41.9406,1.0001 40.4456,1.0001 L37.9166,1.0001 C16.9756,1.0001 -0.0004,17.9751 -0.0004,38.9171 L-0.0004,60.5831 C-0.0004,81.5241 16.9756,98.5001 37.9166,98.5001 L40.4456,98.5001 C41.9406,98.5001 43.1536,97.2871 43.1536,95.7921 L43.1536,87.0591 C43.1536,86.0581 42.4266,85.2071 41.4376,85.0561 C34.4946,83.9951 26.8946,81.1421 21.1426,76.9131" id="Fill-3" fill="#00A2A8"></path>
    </g>
</svg>